<?xml version="1.0" encoding="utf-8"?>
<!-- Generator: Adobe Illustrator 27.3.1, SVG Export Plug-In . SVG Version: 6.00 Build 0)  -->
<svg version="1.1" id="Warstwa_1" xmlns="http://www.w3.org/2000/svg" xmlns:xlink="http://www.w3.org/1999/xlink" x="0px" y="0px"
	 viewBox="0 0 400 400" style="enable-background:new 0 0 400 400;" xml:space="preserve">
<style type="text/css">
	.st0{fill:#F2F2F2;}
</style>
<path class="st0" d="M8.55,10.12v379.75h381.34V10.12H8.55z M364.46,364.45h-77.86v-27.01h52.43v-25.42H111.67v25.42h149.52v27.01
	H33.97V248.46h27.01v88.98H86.4V192.85H60.98v30.19H33.97V35.55h228.8v23.83H110.24V84.8h203.38v152.54h25.42V59.38h-50.85V35.55
	h76.27V364.45z"/>
<polygon class="st0" points="245.14,167.43 245.14,192.85 216.38,192.85 216.38,286.6 111.83,286.6 111.83,111.82 191.11,111.82 
	191.11,137.24 137.25,137.24 137.25,261.17 190.95,261.17 190.95,192.85 162.51,192.85 162.51,167.43 "/>
<polygon class="st0" points="338.88,261.17 338.88,286.6 238.78,286.6 238.78,261.17 261.18,261.17 261.18,137.24 214.79,137.24 
	214.79,111.82 286.45,111.82 286.45,130.88 286.61,130.88 286.61,261.17 "/>
<rect x="60.98" y="59.38" class="st0" width="25.42" height="108.05"/>
</svg>
